<?xml version="1.0" encoding="UTF-8"?>
<svg version="1.1" xmlns="http://www.w3.org/2000/svg" width="512" height="512">
<path d="M0 0 C2.03775595 0.01006379 4.07551679 0.01918355 6.11328125 0.02734375 C11.03407915 0.04733074 15.95417577 0.08652266 20.875 0.125 C20.875 12.335 20.875 24.545 20.875 37.125 C15.863125 37.269375 10.85125 37.41375 5.6875 37.5625 C3.32815308 37.65809204 3.32815308 37.65809204 0.92114258 37.75561523 C-9.05765561 37.89559838 -9.05765561 37.89559838 -12.22900391 35.60595703 C-13.97075716 33.23631249 -15.125 31.11748333 -15.125 28.125 C-15.846875 27.83625 -16.56875 27.5475 -17.3125 27.25 C-20.125 26.125 -20.125 26.125 -22.375 25 C-27.8820191 23.24776665 -33.08394024 23.3495192 -38.375 25.75 C-43.06097212 28.39169344 -45.78047853 31.75608122 -48.4375 36.4375 C-50.09653769 42.92282915 -49.701904 48.46914909 -46.39453125 54.3359375 C-43.34452627 58.63409836 -39.2707689 61.80864051 -34.125 63.125 C-27.61516653 63.93872918 -22.50450425 62.96582509 -17.125 59.125 C-14.34759943 56.42514107 -12.2710795 53.34411926 -10.125 50.125 C-7.05224609 49.78442383 -7.05224609 49.78442383 -3.1484375 49.83203125 C-1.26777588 49.84327026 -1.26777588 49.84327026 0.65087891 49.85473633 C2.25108887 49.88204834 3.85129883 49.90936035 5.5 49.9375 C10.57375 49.999375 15.6475 50.06125 20.875 50.125 C20.875 61.345 20.875 72.565 20.875 84.125 C16.61335937 84.15078125 12.35171875 84.1765625 7.9609375 84.203125 C4.55321421 84.23482207 1.14558309 84.27047331 -2.2620697 84.30879211 C-5.85393174 84.3481009 -9.44554717 84.380514 -13.03759766 84.39599609 C-16.5003274 84.41119074 -19.96238592 84.44568408 -23.42481613 84.49330902 C-25.38219741 84.51526753 -27.33976819 84.51747133 -29.29727173 84.51934814 C-38.01139862 84.63934521 -38.01139862 84.63934521 -45.125 89.125 C-46.15238281 89.90617187 -47.17976562 90.68734375 -48.23828125 91.4921875 C-49.3048426 92.3279271 -50.37124496 93.16386964 -51.4375 94 C-52.58231513 94.87763186 -53.72815196 95.75393258 -54.875 96.62890625 C-56.84120749 98.12928261 -58.76992063 99.65096423 -60.6875 101.21484375 C-62.81318352 102.8423202 -64.62432602 104.16688736 -67.125 105.125 C-69.35080457 104.73790355 -71.00551604 103.96616259 -73.01953125 102.953125 C-77.02399132 101.3780869 -81.03368324 102.12108026 -85.125 103.125 C-90.53406663 105.88056225 -94.83372495 109.67964338 -96.984375 115.41796875 C-98.57249957 121.66394649 -98.06743767 126.3938341 -95.125 132.125 C-92.34932746 136.60126064 -89.0775287 139.27994029 -84.125 141.125 C-76.26899846 142.92801675 -70.10005898 140.98322135 -63.125 137.125 C-61.94842532 135.44480946 -61.94842532 135.44480946 -61.125 133.125 C-60.58875 131.949375 -60.0525 130.77375 -59.5 129.5625 C-58.09173843 125.97176672 -58.23520919 123.48674278 -58.6875 119.6875 C-58.78125 116.86328125 -58.78125 116.86328125 -58.125 114.125 C-55.08153693 110.93443621 -51.68681754 108.63892407 -47.92773438 106.35871887 C-46.04332701 105.13749214 -46.04332701 105.13749214 -44.29101562 103.39653015 C-37.72570594 97.36847784 -32.21358611 97.18556504 -23.55859375 97.44140625 C-22.28395767 97.45131088 -21.00932159 97.46121552 -19.69606018 97.47142029 C-16.33604985 97.50379832 -12.97948311 97.56646356 -9.62042236 97.64434814 C-6.18149826 97.71645774 -2.74220513 97.74841827 0.69726562 97.78320312 C7.42509055 97.85415036 14.14696167 97.99116154 20.875 98.125 C20.875 109.345 20.875 120.565 20.875 132.125 C16.915 133.445 12.955 134.765 8.875 136.125 C-4.22795829 142.5040718 -12.72614964 151.50541702 -17.5625 165.4375 C-21.31546976 179.16589586 -19.26361466 192.16316915 -12.3125 204.5 C-4.82014436 216.0468224 5.98634086 222.62711697 19.29296875 225.6796875 C33.1657223 228.07226527 45.47186466 223.94183854 56.875 216.125 C57.761875 215.5475 58.64875 214.97 59.5625 214.375 C67.76648705 206.39274233 71.33645853 196.7406244 74.875 186.125 C86.095 186.125 97.315 186.125 108.875 186.125 C109.06453486 193.49346031 109.2446578 200.85294942 109.34075165 208.22173309 C109.38801414 211.65386165 109.45099263 215.08394483 109.55395508 218.51489258 C109.67170963 222.46409188 109.71434726 226.41249726 109.75390625 230.36328125 C109.80035782 231.57518631 109.84680939 232.78709137 109.89466858 234.03572083 C109.89954302 242.35632424 107.89460559 246.59136673 102.19126892 252.6471405 C99.79421209 255.21142394 97.92613432 257.88416595 96 260.8125 C92.70596107 264.982335 92.70596107 264.982335 89.28125 265.5703125 C87.41416223 265.48115381 85.54867444 265.34897387 83.6875 265.17578125 C78.67362688 265.08525299 74.83450138 267.18569447 70.875 270.125 C66.8656473 274.36477527 65.08116339 279.10203155 64.7421875 284.89453125 C65.13813874 291.54418289 68.26356466 296.51356466 72.875 301.125 C78.25896137 305.06448393 84.4640981 305.02521851 90.875 304.125 C95.99840151 302.11045863 99.97143323 298.81537709 102.875 294.125 C105.10839035 288.5947001 105.13180372 283.86170086 103.875 278.125 C103.41738281 277.36960937 102.95976562 276.61421875 102.48828125 275.8359375 C101.875 273.125 101.875 273.125 102.72509766 271.37451172 C104.16951683 269.29329991 105.70775687 267.33525191 107.3125 265.375 C108.14551636 264.31200684 108.14551636 264.31200684 108.99536133 263.22753906 C110.60487007 261.17903078 112.23567422 259.1496819 113.875 257.125 C115.27452062 255.37794742 116.67126486 253.62865774 118.0625 251.875 C118.59230469 251.23046875 119.12210937 250.5859375 119.66796875 249.921875 C122.07947536 246.33192989 122.01599718 242.57375643 122.08032227 238.34667969 C122.10026749 237.1857782 122.12021271 236.02487671 122.14076233 234.82879639 C122.15747482 233.58076233 122.17418732 232.33272827 122.19140625 231.046875 C122.2225779 229.12430878 122.2225779 229.12430878 122.25437927 227.16290283 C122.30944747 223.76323728 122.35892364 220.36351262 122.40722656 216.96374512 C122.45755332 213.49140195 122.51312986 210.01914307 122.56835938 206.546875 C122.67624903 199.73964831 122.77539024 192.93237307 122.875 186.125 C133.105 186.125 143.335 186.125 153.875 186.125 C154.04 191.136875 154.205 196.14875 154.375 201.3125 C154.44783203 202.88539795 154.52066406 204.4582959 154.59570312 206.07885742 C154.75667064 216.11920645 154.75667064 216.11920645 152.14428711 219.09936523 C149.99609375 220.3828125 149.99609375 220.3828125 147.84545898 221.22705078 C144.36456355 222.81331437 143.45705176 225.77105027 141.875 229.125 C141.545 229.785 141.215 230.445 140.875 231.125 C140.10067269 237.95431298 140.79791049 243.49234403 144.875 249.125 C149.2497458 253.83534274 153.80936709 256.16143473 160.1875 256.5 C165.80716633 256.35039158 170.27936126 254.52958919 174.4140625 250.69921875 C178.80341698 245.73231762 180.43142472 241.12784733 180.24609375 234.59765625 C179.54674522 229.93778659 177.80219416 225.80838598 174.875 222.125 C173.48998329 221.52121712 172.10452159 220.91845453 170.71875 220.31640625 C168.5859375 219.06201172 168.5859375 219.06201172 166.875 217.125 C165.83523026 211.83297917 166.12648844 206.67941499 166.375 201.3125 C166.54 196.300625 166.705 191.28875 166.875 186.125 C179.745 186.125 192.615 186.125 205.875 186.125 C204.6941132 206.20007552 204.6941132 206.20007552 203.25 214.1875 C203.07742676 215.14664307 202.90485352 216.10578613 202.72705078 217.09399414 C195.45278692 255.42233312 178.63736484 290.38604149 152.95703125 319.68359375 C149.72260474 323.47630777 149.74382126 325.50306117 149.71678162 330.43972778 C149.70937465 331.42234362 149.70937465 331.42234362 149.70181805 332.42481029 C149.68640501 334.62972116 149.67807219 336.83460283 149.66967773 339.03955078 C149.66010219 340.61618305 149.65009231 342.19281274 149.63967896 343.7694397 C149.61258868 348.05842418 149.59160148 352.34741971 149.57167697 356.63644266 C149.5498428 361.11546765 149.52244157 365.59445841 149.49562073 370.07345581 C149.44565903 378.55903627 149.40073312 387.04463568 149.35759836 395.53025329 C149.30825567 405.18914693 149.25332655 414.84800624 149.19791877 424.50686669 C149.08404536 444.37954602 148.97741618 464.25225862 148.875 484.125 C140.625 484.125 132.375 484.125 123.875 484.125 C123.90231201 482.32015137 123.92962402 480.51530273 123.95776367 478.65576172 C124.03568561 472.63643785 124.06170916 466.61868221 124.05378246 460.59898186 C124.05082561 456.95512461 124.06753603 453.31374649 124.13208008 449.67041016 C125.18585321 429.32127806 125.18585321 429.32127806 116.15055847 412.00631714 C114.7475164 410.68856318 113.31155121 409.40614136 111.875 408.125 C110.19009828 406.17795878 108.63628764 404.16578222 107.0625 402.125 C106.39605469 401.3 105.72960937 400.475 105.04296875 399.625 C103.875 397.125 103.875 397.125 104.6484375 394.1796875 C105.05320312 393.17164063 105.45796875 392.16359375 105.875 391.125 C106.73347831 384.34753965 106.64834116 378.43736974 102.48828125 372.8125 C98.19847224 368.325339 93.21680808 365.41141038 86.953125 364.9921875 C81.60227026 365.33415942 77.27325223 367.03747049 73.0625 370.3125 C69.07893203 375.43423025 66.10263138 380.30074523 66.48828125 387.04296875 C67.45565817 392.25116976 69.4841982 396.65693143 73.125 400.5 C78.50670581 403.68009889 82.51497884 405.36818573 88.8125 404.625 C92.36857973 404.51063909 93.50490278 404.80277605 96.23046875 407.17578125 C98.11804398 409.47271014 99.89784384 411.7735634 101.54299927 414.24951172 C102.91390602 416.24184301 102.91390602 416.24184301 104.83175659 418.39501953 C110.94435634 425.8096513 111.98570359 431.21401271 111.65625 440.66796875 C111.64819336 441.77740845 111.64013672 442.88684814 111.63183594 444.02990723 C111.59037303 448.12478991 111.47868355 452.2187202 111.375 456.3125 C111.21 465.490625 111.045 474.66875 110.875 484.125 C78.205 484.125 45.535 484.125 11.875 484.125 C11.66875 473.544375 11.4625 462.96375 11.25 452.0625 C11.15895996 448.732771 11.06791992 445.40304199 10.97412109 441.97241211 C10.9449068 439.32409696 10.91942651 436.67573686 10.8984375 434.02734375 C10.87230377 433.34652237 10.84617004 432.66570099 10.81924438 431.96424866 C10.40995476 420.73134856 10.40995476 420.73134856 14.02056885 416.77249146 C16.56392741 414.99347417 19.13497101 413.57435474 21.875 412.125 C31.16046719 404.73009906 36.75158212 393.73981833 38.875 382.125 C39.14453946 378.86710672 39.15892576 375.62788124 39.1496582 372.36010742 C39.15476913 371.41766174 39.15988007 370.47521606 39.16514587 369.50421143 C39.17896092 366.41289797 39.17809232 363.32180925 39.17578125 360.23046875 C39.17967038 358.07432472 39.1840055 355.91818146 39.18876648 353.76203918 C39.19620958 349.2558035 39.19594961 344.74964622 39.19067383 340.2434082 C39.18485761 334.46167699 39.20187128 328.68026388 39.2250185 322.89858532 C39.23972167 318.45229714 39.24063263 314.0060864 39.23750877 309.55977821 C39.23802291 307.42706989 39.24327798 305.29435733 39.25332069 303.16167259 C39.26561217 300.18854113 39.25893923 297.21604073 39.24731445 294.24291992 C39.25495819 293.35925247 39.26260193 292.47558502 39.27047729 291.56513977 C39.26346298 290.75640411 39.25644867 289.94766846 39.2492218 289.11442566 C39.24938954 288.41227023 39.24955729 287.7101148 39.24973011 286.98668194 C38.75054643 284.50670709 37.90605736 283.60245509 35.875 282.125 C32.26037214 282.20078955 32.26037214 282.20078955 28.875 283.125 C27.21946799 286.43606402 27.73089363 290.13446102 27.7331543 293.7746582 C27.72967987 294.67090408 27.72620544 295.56714996 27.72262573 296.49055481 C27.71525995 298.44287302 27.70991896 300.39519965 27.70633507 302.34752846 C27.69916927 305.4471831 27.68349773 308.54667946 27.66499329 311.64628601 C27.61255819 320.46183988 27.56463597 329.27731144 27.54907227 338.09301758 C27.53893119 343.48364902 27.50944285 348.87388841 27.46775246 354.26436424 C27.4555144 356.31062019 27.45030791 358.35693173 27.45255089 360.40322304 C27.46510973 375.61373749 27.25346695 389.6301888 15.875 401.125 C7.64374956 408.7573029 -1.53593916 411.73724638 -12.61669922 411.65844727 C-13.61325531 411.66706284 -14.6098114 411.67567841 -15.63656616 411.68455505 C-18.90121108 411.70708914 -22.16498868 411.70049841 -25.4296875 411.69140625 C-27.71835583 411.6966478 -30.007022 411.70292622 -32.29568481 411.71018982 C-37.08182981 411.72057126 -41.86767707 411.71606543 -46.65380859 411.70141602 C-52.76215358 411.68424233 -58.86955662 411.70771902 -64.97779655 411.74290562 C-69.70156998 411.76495485 -74.42512071 411.7634197 -79.1489296 411.7551403 C-81.39980222 411.75432472 -83.65069184 411.76111238 -85.90151596 411.77591133 C-101.99230054 411.86549232 -113.85011292 411.22882384 -125.99609375 399.53125 C-129.09390055 396.02987571 -131.22705772 392.37872152 -133.125 388.125 C-133.5375 387.238125 -133.95 386.35125 -134.375 385.4375 C-136.07119133 380.20757674 -136.27106923 374.98514983 -136.2668457 369.53076172 C-136.27032013 368.79503937 -136.27379456 368.05931702 -136.27737427 367.30130005 C-136.28469148 365.7135378 -136.2900582 364.12576559 -136.29366493 362.53799057 C-136.30086816 360.02435883 -136.31656011 357.51091804 -136.33500671 354.99734497 C-136.38731809 347.85421237 -136.4354987 340.7111915 -136.45092773 333.56787109 C-136.46099992 329.19058875 -136.4902931 324.81379841 -136.53224754 320.43671036 C-136.54456178 318.77098431 -136.54967802 317.10518886 -136.54744911 315.43941879 C-136.5451 313.11255863 -136.56722617 310.78711769 -136.5949707 308.46044922 C-136.58836929 307.77360046 -136.58176788 307.08675171 -136.57496643 306.37908936 C-136.64013465 303.0531415 -136.91252391 301.39195511 -139.01068115 298.75582886 C-141.28761014 296.99957459 -143.51863015 295.67900225 -146.08984375 294.390625 C-147.04930908 293.90271484 -148.00877441 293.41480469 -148.99731445 292.91210938 C-150.00882568 292.40486328 -151.02033691 291.89761719 -152.0625 291.375 C-165.80404788 284.33389406 -165.80404788 284.33389406 -171.9375 280.625 C-172.91332031 280.0371875 -173.88914063 279.449375 -174.89453125 278.84375 C-177.35294317 276.94935202 -178.24777132 276.08628063 -179.125 273.125 C-179.84134701 265.61091964 -177.49733688 260.04664047 -174.62109375 253.17578125 C-174.150737 252.02096252 -173.68038025 250.8661438 -173.19577026 249.67633057 C-171.92630179 246.56652686 -170.64492271 243.46217917 -169.35782242 240.35966873 C-168.02740766 237.14426629 -166.71292642 233.92236853 -165.3972168 230.70092773 C-163.29724629 225.56384253 -161.18933798 220.43009605 -159.07519531 215.29882812 C-155.47118977 206.54578721 -151.91739981 197.77273324 -148.37112427 188.9961853 C-147.18339747 186.05915003 -145.99214007 183.12356446 -144.79795837 180.18914795 C-144.2679646 178.88147773 -143.74181795 177.57224008 -143.21998596 176.2612915 C-142.18195556 173.66046826 -141.11754463 171.1099949 -139.87109375 168.60131836 C-135.90189518 160.35414714 -136.52093985 151.52039501 -136.5 142.5625 C-136.39311167 126.66600525 -136.10681454 110.9009889 -131.4375 95.5625 C-131.17622314 94.68247314 -130.91494629 93.80244629 -130.64575195 92.89575195 C-120.33010262 59.24556073 -98.65275803 28.68020132 -67.26171875 11.84375 C-56.41625678 6.28413454 -45.22806641 2.33464638 -33.0625 1 C-32.29817657 0.91605988 -31.53385315 0.83211975 -30.74636841 0.74563599 C-20.51725591 -0.26360172 -10.26618052 -0.0895061 0 0 Z " fill="#9F28F2" transform="translate(186.125,27.875)"/>
<path d="M0 0 C6.6 0 13.2 0 20 0 C20.68707031 3.02285156 21.37414062 6.04570313 22.08203125 9.16015625 C22.75565693 12.10282459 23.43155232 15.04496299 24.10766602 17.98706055 C24.57455872 20.02427823 25.03910827 22.06203446 25.5012207 24.1003418 C26.16775734 27.03841235 26.84283421 29.97441139 27.51953125 32.91015625 C27.82441216 34.26682152 27.82441216 34.26682152 28.13545227 35.65089417 C29.853367 44.52279701 29.853367 44.52279701 34.97363281 51.49731445 C35.70936523 51.7830835 36.44509766 52.06885254 37.203125 52.36328125 C38.01910156 52.69263672 38.83507812 53.02199219 39.67578125 53.36132812 C40.95001953 53.8321582 40.95001953 53.8321582 42.25 54.3125 C43.50103516 54.81233398 43.50103516 54.81233398 44.77734375 55.32226562 C47.17015968 56.26323955 49.57621962 57.14240628 52 58 C52.6595166 58.24758057 53.3190332 58.49516113 53.99853516 58.75024414 C56.82236333 59.714804 58.59757028 60.11795354 61.4921875 59.26953125 C62.27851563 58.78871094 63.06484375 58.30789062 63.875 57.8125 C64.8134375 57.24917969 65.751875 56.68585938 66.71875 56.10546875 C67.8015625 55.41066406 68.884375 54.71585938 70 54 C70.64324219 53.58959473 71.28648437 53.17918945 71.94921875 52.75634766 C77.64902297 49.11376639 83.31854043 45.42386349 88.96826172 41.70410156 C90.74218624 40.54061441 92.52564123 39.39348618 94.3125 38.25 C95.31925781 37.59515625 96.32601562 36.9403125 97.36328125 36.265625 C100 35 100 35 101.94035339 35.22369385 C104.40553209 36.15285004 105.71206648 37.31219862 107.59106445 39.15527344 C108.27469559 39.81976501 108.95832672 40.48425659 109.66267395 41.16888428 C110.38887436 41.89174622 111.11507477 42.61460815 111.86328125 43.359375 C112.61465866 44.10076721 113.36603607 44.84215942 114.1401825 45.60601807 C115.72509424 47.17574628 117.30595938 48.74956923 118.88305664 50.32714844 C121.30515916 52.74267908 123.75021611 55.13321602 126.19726562 57.5234375 C127.7332375 59.05060963 129.26779227 60.57920863 130.80078125 62.109375 C131.53710281 62.82414001 132.27342438 63.53890503 133.03205872 64.27532959 C133.69992905 64.95242981 134.36779938 65.62953003 135.0559082 66.32714844 C135.94715141 67.21197906 135.94715141 67.21197906 136.85639954 68.11468506 C138 70 138 70 137.74230957 72.61538696 C137.02868132 74.90786345 136.24966326 76.55467642 134.91796875 78.5390625 C134.48597168 79.19293945 134.05397461 79.84681641 133.60888672 80.52050781 C133.1398291 81.21499023 132.67077148 81.90947266 132.1875 82.625 C131.19318265 84.13226676 130.19972652 85.64010193 129.20703125 87.1484375 C128.6857666 87.93573242 128.16450195 88.72302734 127.62744141 89.53417969 C124.84374665 93.75189901 122.10093595 97.99477968 119.375 102.25 C118.85446045 103.04744629 118.3339209 103.84489258 117.79760742 104.66650391 C117.31525635 105.42108887 116.83290527 106.17567383 116.3359375 106.953125 C115.90845215 107.61473633 115.4809668 108.27634766 115.04052734 108.95800781 C113.42040535 112.13743071 112.66667249 114.71112418 113.57324219 118.21655273 C113.89454102 118.94817627 114.21583984 119.6797998 114.546875 120.43359375 C114.8975 121.24763672 115.248125 122.06167969 115.609375 122.90039062 C115.98578125 123.73763672 116.3621875 124.57488281 116.75 125.4375 C117.1109375 126.27087891 117.471875 127.10425781 117.84375 127.96289062 C118.87266927 130.32083061 119.91528453 132.66718198 121 135 C121.4024292 136.04067627 121.8048584 137.08135254 122.21948242 138.15356445 C123.77369556 141.22761023 123.77369556 141.22761023 126.94360352 142.31152344 C128.13912842 142.57481445 129.33465332 142.83810547 130.56640625 143.109375 C131.22282608 143.26194763 131.87924591 143.41452026 132.55555725 143.57171631 C133.96708807 143.89788636 135.38111174 144.21341729 136.79718018 144.51928711 C139.01064457 145.00232292 141.21182248 145.52290469 143.41357422 146.05664062 C147.9156859 147.14677478 152.42577832 148.20047023 156.9375 149.25 C158.50721116 149.61697499 160.07687288 149.98416149 161.64648438 150.3515625 C165.43034296 151.23718886 169.21516578 152.11851232 173 153 C173 159.27 173 165.54 173 172 C144.95 172 116.9 172 88 172 C86.02 162.1 86.02 162.1 84 152 C75.08918993 126.28016186 58.78623947 106.61675425 34.55078125 94.23828125 C23.41246219 89.19619155 12.11713201 86.5146415 0 85 C0 56.95 0 28.9 0 0 Z " fill="#8733F0" transform="translate(220,28)"/>
<path d="M0 0 C9.27545734 5.26977311 15.6997373 12.31566237 18.734375 22.74609375 C20.4743768 31.97816944 19.77445956 40.96623392 15.20703125 49.25390625 C8.55527023 58.55306815 1.52711992 63.72985671 -9.73046875 65.69140625 C-20.72652335 66.93423266 -29.81547377 64.37614365 -38.48046875 57.50390625 C-46.19818326 50.45423992 -49.07833331 41.58353443 -50.23046875 31.37890625 C-49.70089207 21.43915937 -46.1150659 13.37855624 -39.1640625 6.34765625 C-28.28121632 -3.26223758 -13.51880421 -6.43432306 0 0 Z " fill="#992BF2" transform="translate(228.79296875,175.74609375)"/>
<path d="M0 0 C4.87907648 4.30568074 7.54442214 8.77878643 8.25 15.31640625 C8.54760607 21.40803056 7.64880977 26.04272492 4 31 C0.00450744 35.17162797 -4.07782573 38.66758335 -9.953125 39.3359375 C-16.74662202 39.41642917 -22.56952994 39.45766477 -28 35 C-34 28.47096774 -34 28.47096774 -34 25 C-41.48960801 24.91434731 -48.97702424 24.89973453 -56.46704102 24.93286133 C-59.0110178 24.93593006 -61.55506774 24.92315867 -64.09887695 24.89379883 C-80.37560869 23.99208242 -80.37560869 23.99208242 -94.75 30.12109375 C-96.21839721 31.70084454 -97.64105217 33.32516756 -99 35 C-100.34043785 36.25093877 -101.6976159 37.48428565 -103.07421875 38.6953125 C-104.28159218 39.83542956 -105.48605282 40.97863958 -106.6875 42.125 C-107.9796866 43.34327805 -109.27264582 44.56073717 -110.56640625 45.77734375 C-111.16598145 46.34179199 -111.76555664 46.90624023 -112.38330078 47.48779297 C-114.84155796 49.78716551 -117.33907624 52.02828291 -119.91796875 54.19140625 C-121.69390803 55.73410773 -123.3676225 57.32362333 -125.05078125 58.96484375 C-133.29185016 66.78286231 -133.29185016 66.78286231 -137.765625 67.3515625 C-140.52564057 66.66601024 -141.97030388 65.99665455 -144 64 C-145.31442188 61.02443866 -145.78984331 58.23370134 -146 55 C-140.05144477 49.51741493 -134.10435993 44.04278517 -127.9921875 38.7421875 C-125.63979365 36.68499601 -123.31965034 34.59403085 -121 32.5 C-114.63330682 26.76223548 -108.19335397 21.13056731 -101.625 15.625 C-101.1005127 15.18357666 -100.57602539 14.74215332 -100.03564453 14.28735352 C-95.78329897 10.74049498 -93.84736726 9.87646656 -88.32861328 9.88989258 C-87.14042999 9.88931351 -85.9522467 9.88873444 -84.72805786 9.88813782 C-83.43850189 9.89024765 -82.14894592 9.89235748 -80.8203125 9.89453125 C-78.11065647 9.8810778 -75.40104173 9.86615951 -72.69140625 9.84960938 C-68.40301552 9.82526808 -64.11511032 9.80957688 -59.82666016 9.82495117 C-56.36149314 9.83661138 -52.89753112 9.81922354 -49.43255234 9.78250694 C-47.47167199 9.76970336 -45.5106686 9.78793846 -43.54983521 9.80659485 C-40.25674495 9.76154735 -37.22347656 9.67520114 -34 9 C-31.21202291 6.30812507 -31.21202291 6.30812507 -30 3 C-21.18333893 -5.43332798 -10.31691579 -6.61291031 0 0 Z " fill="#7C37EF" transform="translate(406,4)"/>
<path d="M0 0 C4.87907648 4.30568074 7.54442214 8.77878643 8.25 15.31640625 C8.62635911 23.02000681 6.55174126 27.97820113 1.625 33.8125 C-4.36420563 38.80350469 -9.12117863 39.54893268 -16.8046875 39.34765625 C-22.8487188 38.69005382 -26.93983311 36.47875899 -30.9375 31.9375 C-33 29 -33 29 -34 26 C-41.50672291 25.77071168 -49.01253496 25.61374422 -56.52197266 25.50561523 C-59.07309714 25.46051552 -61.62399107 25.39921644 -64.17431641 25.32104492 C-67.85376972 25.21113544 -71.53013514 25.16066806 -75.2109375 25.12109375 C-76.34050873 25.07464218 -77.47007996 25.02819061 -78.63388062 24.98033142 C-85.11887083 24.97625099 -88.59248818 25.89074413 -93.48681641 30.27368164 C-95.0064088 31.83446713 -96.51104667 33.40995901 -98 35 C-99.65360015 36.5143924 -101.31879017 38.01631833 -103 39.5 C-103.825 40.2425 -104.65 40.985 -105.5 41.75 C-113 48.5 -113 48.5 -115.48046875 50.73046875 C-117.21481186 52.29272201 -118.94642979 53.85800423 -120.67578125 55.42578125 C-121.54589844 56.21339844 -122.41601562 57.00101563 -123.3125 57.8125 C-124.09238281 58.52019531 -124.87226563 59.22789062 -125.67578125 59.95703125 C-126.44277344 60.63121094 -127.20976562 61.30539063 -128 62 C-129.2065625 63.13501953 -129.2065625 63.13501953 -130.4375 64.29296875 C-133 66 -133 66 -135.82421875 66.09375 C-136.76910156 65.8978125 -137.71398437 65.701875 -138.6875 65.5 C-139.64011719 65.3246875 -140.59273438 65.149375 -141.57421875 64.96875 C-144 64 -144 64 -145.39453125 62.21875 C-146.22296302 59.1829484 -146.18036587 57.96604756 -145 55 C-142.84448801 52.48356865 -140.4151621 50.31912942 -137.9375 48.125 C-136.90532349 47.18756958 -136.90532349 47.18756958 -135.85229492 46.23120117 C-133.91233264 44.47488222 -131.95998507 42.73391556 -130 41 C-129.22398437 40.31292969 -128.44796875 39.62585938 -127.6484375 38.91796875 C-126.44290999 37.86377342 -125.23338275 36.81413112 -124.01953125 35.76953125 C-121.30513061 33.39114926 -118.65454819 30.94462323 -116 28.5 C-107.1474148 20.36459672 -107.1474148 20.36459672 -103.96185303 17.68127441 C-102.7295771 16.62523507 -101.52564855 15.53418024 -100.36773682 14.39709473 C-94.19545112 8.8717343 -88.20631802 9.22942741 -80.234375 9.40625 C-78.23159933 9.40705004 -76.22882299 9.40781728 -74.22604752 9.40662384 C-70.73376693 9.41260651 -67.24199555 9.45747599 -63.75 9.5 C-59.56496481 9.55077644 -55.38075966 9.59466243 -51.19537354 9.59216309 C-48.59540221 9.59320473 -45.99527541 9.62105831 -43.39593506 9.67834473 C-40.15361275 9.67778899 -37.17900084 9.63807405 -34 9 C-31.1771791 6.28162483 -31.1771791 6.28162483 -30 3 C-28 1.13671875 -28 1.13671875 -26 -0.3125 C-25.34 -0.80363281 -24.68 -1.29476562 -24 -1.80078125 C-16.47718522 -6.31153152 -7.04907807 -4.51830004 0 0 Z " fill="#6E3DED" transform="translate(497,95)"/>
<path d="M0 0 C7.34261363 0.66751033 13.12884919 1.23249498 19.875 3.5625 C21.02935547 3.95731567 21.02935547 3.95731567 22.20703125 4.36010742 C41.97335132 11.45797589 58.78836595 27.2091854 68 46 C72.1601359 55.55617424 73.47468744 63.32281206 75 74 C63.78 74 52.56 74 41 74 C40.154375 71.545625 39.30875 69.09125 38.4375 66.5625 C33.67634978 53.51439614 25.3746161 44.32123863 12.8828125 38.140625 C8.68856057 36.48111069 4.3203951 35.29611853 0 34 C0 22.78 0 11.56 0 0 Z " fill="#902FF1" transform="translate(220,126)"/>
<path d="M0 0 C5.34220048 3.12640142 9.24780523 7.26482818 11.875 12.89453125 C13.52553787 20.54702503 12.86683398 25.92501411 9.05078125 32.84765625 C5.68896863 37.89478701 1.55576455 40.78936635 -4.4375 42.08203125 C-10.46876702 42.71099019 -16.1884818 42.32939545 -21.4375 39.08203125 C-24.57509984 36.11435945 -27.49611064 32.96480998 -29.4375 29.08203125 C-31.19054443 29.14656494 -31.19054443 29.14656494 -32.97900391 29.21240234 C-37.38145165 29.35524283 -41.78097438 29.40275362 -46.18554688 29.42382812 C-48.07891282 29.4456796 -49.97218134 29.49222631 -51.86425781 29.56542969 C-68.39337653 30.17761927 -68.39337653 30.17761927 -74.89746094 24.90722656 C-78.45762586 21.57050907 -81.53015562 17.99677998 -84.4375 14.08203125 C-84.4375 13.75203125 -84.4375 13.42203125 -84.4375 13.08203125 C-66.2875 13.08203125 -48.1375 13.08203125 -29.4375 13.08203125 C-28.7775 11.43203125 -28.1175 9.78203125 -27.4375 8.08203125 C-21.58521263 -1.14657576 -10.11264725 -3.80844888 0 0 Z " fill="#703CED" transform="translate(427.4375,50.91796875)"/>
<path d="M0 0 C5.49463424 3.98360983 9.3947448 8.31563717 11.5 14.8125 C12.61444886 22.71270417 10.75379011 28.32936983 6.4375 35 C2.24255859 39.7129914 -4.36581854 41.94069911 -10.5625 42.3125 C-18.35089335 41.32349767 -23.55058233 38.57592581 -28.40625 32.3984375 C-29.5 30.8125 -29.5 30.8125 -30.5 28.8125 C-45.35 28.3175 -45.35 28.3175 -60.5 27.8125 C-60.5 22.8625 -60.5 17.9125 -60.5 12.8125 C-50.6 12.8125 -40.7 12.8125 -30.5 12.8125 C-29.84 11.1625 -29.18 9.5125 -28.5 7.8125 C-22.24331429 -2.05381209 -10.57681574 -3.58856248 0 0 Z " fill="#6C3EED" transform="translate(466.5,187.1875)"/>
</svg>
